<?xml version="1.0" encoding="UTF-8" standalone="no" ?>
<!DOCTYPE svg PUBLIC "-//W3C//DTD SVG 1.1//EN" "http://www.w3.org/Graphics/SVG/1.1/DTD/svg11.dtd">
<svg xmlns="http://www.w3.org/2000/svg" xmlns:xlink="http://www.w3.org/1999/xlink" version="1.1" width="90" height="90" viewBox="0 0 90 90" xml:space="preserve">
<desc>Created with Fabric.js 5.2.4</desc>
<defs>
</defs>
<g transform="matrix(1 0 0 1 45 45)" id="30469f67-93c8-41ba-9a48-7c53d4381b64"  >
<rect style="stroke: none; stroke-width: 1; stroke-dasharray: none; stroke-linecap: butt; stroke-dashoffset: 0; stroke-linejoin: miter; stroke-miterlimit: 4; fill: rgb(255,255,255); fill-rule: nonzero; opacity: 1; visibility: hidden;" vector-effect="non-scaling-stroke"  x="-45" y="-45" rx="0" ry="0" width="90" height="90" />
</g>
<g transform="matrix(Infinity NaN NaN Infinity 0 0)" id="c6e38446-b502-4693-88d5-984f0e6d72cd"  >
</g>
<g transform="matrix(NaN NaN NaN NaN 0 0)"  >
<g style=""   >
</g>
</g>
<g transform="matrix(3.85 0 0 3.85 45 45)"  >
<g style="" vector-effect="non-scaling-stroke"   >
		<g transform="matrix(0.25 0 0 0.25 0 4.78)"  >
<path style="stroke: none; stroke-width: 1; stroke-dasharray: none; stroke-linecap: butt; stroke-dashoffset: 0; stroke-linejoin: miter; stroke-miterlimit: 4; fill: rgb(130,198,255); fill-rule: nonzero; opacity: 1;" vector-effect="non-scaling-stroke"  transform=" translate(-24, -43.1)" d="M 40.164062 38.203125 L 40.164062 48 L 12.734375 48 C 12.65625 48 12.578125 48 12.5 47.992188 C 12.492188 47.992188 12.488281 47.992188 12.484375 47.992188 C 12.441406 47.992188 12.398438 47.988281 12.359375 47.984375 C 12.289062 47.980469 12.21875 47.972656 12.148438 47.964844 C 12.121094 47.960938 12.09375 47.957031 12.0625 47.953125 C 12.007812 47.945312 11.953125 47.9375 11.898438 47.929688 C 11.875 47.921875 11.851562 47.921875 11.832031 47.914062 C 11.804688 47.914062 11.777344 47.90625 11.75 47.898438 C 11.71875 47.890625 11.679688 47.886719 11.648438 47.878906 C 11.636719 47.875 11.625 47.875 11.617188 47.871094 C 11.582031 47.863281 11.546875 47.851562 11.511719 47.84375 C 11.425781 47.824219 11.339844 47.796875 11.257812 47.773438 C 11.21875 47.761719 11.1875 47.75 11.148438 47.734375 C 11.117188 47.726562 11.085938 47.714844 11.054688 47.703125 C 11.015625 47.6875 10.976562 47.671875 10.941406 47.660156 C 10.867188 47.632812 10.796875 47.601562 10.722656 47.566406 C 10.6875 47.550781 10.648438 47.53125 10.613281 47.515625 C 10.578125 47.5 10.542969 47.484375 10.507812 47.460938 C 10.449219 47.433594 10.390625 47.402344 10.335938 47.367188 C 10.304688 47.351562 10.277344 47.335938 10.25 47.320312 C 10.132812 47.25 10.015625 47.175781 9.902344 47.09375 C 9.867188 47.070312 9.835938 47.046875 9.804688 47.023438 C 9.617188 46.886719 9.445312 46.734375 9.28125 46.570312 C 9.253906 46.546875 9.226562 46.515625 9.203125 46.492188 C 9.125 46.414062 9.054688 46.328125 8.980469 46.242188 C 8.957031 46.21875 8.933594 46.1875 8.914062 46.160156 C 8.773438 45.984375 8.648438 45.804688 8.53125 45.617188 C 8.476562 45.523438 8.421875 45.425781 8.375 45.328125 C 8.335938 45.261719 8.304688 45.191406 8.273438 45.121094 C 8.257812 45.089844 8.242188 45.054688 8.230469 45.023438 C 8.214844 44.988281 8.203125 44.953125 8.1875 44.914062 C 8.171875 44.882812 8.15625 44.84375 8.144531 44.8125 C 8.132812 44.777344 8.117188 44.742188 8.109375 44.703125 C 8.09375 44.671875 8.082031 44.632812 8.070312 44.601562 C 8.0625 44.566406 8.050781 44.53125 8.039062 44.5 C 8.03125 44.476562 8.023438 44.453125 8.019531 44.425781 C 8.007812 44.390625 8 44.359375 7.992188 44.324219 C 7.984375 44.296875 7.976562 44.273438 7.972656 44.25 C 7.964844 44.21875 7.960938 44.1875 7.953125 44.160156 C 7.945312 44.121094 7.9375 44.078125 7.929688 44.039062 C 7.921875 44.007812 7.914062 43.96875 7.90625 43.9375 C 7.890625 43.820312 7.875 43.707031 7.859375 43.59375 C 7.84375 43.429688 7.835938 43.265625 7.835938 43.101562 C 7.835938 42.625 7.90625 42.15625 8.039062 41.703125 C 8.65625 39.640625 10.585938 38.203125 12.734375 38.203125 Z M 40.164062 38.203125" stroke-linecap="round" />
</g>
		<g transform="matrix(0.25 0 0 0.25 1.96 4.78)"  >
<path style="stroke: none; stroke-width: 1; stroke-dasharray: none; stroke-linecap: butt; stroke-dashoffset: 0; stroke-linejoin: miter; stroke-miterlimit: 4; fill: rgb(71,183,234); fill-rule: nonzero; opacity: 1;" vector-effect="non-scaling-stroke"  transform=" translate(-31.84, -43.1)" d="M 23.507812 38.203125 L 40.164062 38.203125 L 40.164062 48 L 23.507812 48 Z M 23.507812 38.203125" stroke-linecap="round" />
</g>
		<g transform="matrix(0.25 0 0 0.25 0 0)"  >
<path style="stroke: none; stroke-width: 1; stroke-dasharray: none; stroke-linecap: butt; stroke-dashoffset: 0; stroke-linejoin: miter; stroke-miterlimit: 4; fill: rgb(0,163,255); fill-rule: nonzero; opacity: 1;" vector-effect="non-scaling-stroke"  transform=" translate(-24, -24)" d="M 12.34375 0 C 9.859375 0 7.835938 2.023438 7.835938 4.507812 L 7.835938 43.101562 C 7.835938 43.265625 7.84375 43.429688 7.859375 43.59375 C 7.875 43.707031 7.890625 43.820312 7.90625 43.9375 C 7.914062 43.96875 7.921875 44.007812 7.929688 44.039062 C 7.9375 44.078125 7.945312 44.121094 7.953125 44.160156 C 7.960938 44.1875 7.964844 44.21875 7.972656 44.25 C 7.976562 44.273438 7.984375 44.296875 7.992188 44.324219 C 8 44.359375 8.007812 44.390625 8.019531 44.425781 C 8.023438 44.453125 8.03125 44.476562 8.039062 44.5 C 8.050781 44.53125 8.0625 44.566406 8.070312 44.601562 C 8.082031 44.632812 8.09375 44.671875 8.109375 44.703125 C 8.117188 44.742188 8.132812 44.777344 8.148438 44.8125 C 8.15625 44.847656 8.171875 44.882812 8.1875 44.914062 C 8.203125 44.953125 8.214844 44.988281 8.230469 45.023438 C 8.242188 45.054688 8.257812 45.089844 8.273438 45.121094 C 8.304688 45.195312 8.335938 45.261719 8.375 45.328125 C 8.421875 45.425781 8.476562 45.523438 8.53125 45.617188 C 8.648438 45.804688 8.773438 45.984375 8.914062 46.160156 C 8.933594 46.1875 8.957031 46.21875 8.980469 46.242188 C 9.054688 46.328125 9.125 46.414062 9.203125 46.492188 C 9.226562 46.515625 9.253906 46.546875 9.28125 46.570312 C 9.445312 46.734375 9.617188 46.886719 9.804688 47.023438 C 9.835938 47.046875 9.867188 47.070312 9.902344 47.09375 C 10.015625 47.175781 10.132812 47.25 10.25 47.320312 C 10.277344 47.335938 10.304688 47.355469 10.335938 47.371094 C 10.390625 47.402344 10.449219 47.433594 10.507812 47.460938 C 10.542969 47.484375 10.578125 47.5 10.613281 47.515625 C 10.648438 47.53125 10.6875 47.550781 10.722656 47.566406 C 10.796875 47.601562 10.867188 47.632812 10.941406 47.660156 C 10.976562 47.671875 11.015625 47.6875 11.054688 47.703125 C 11.085938 47.714844 11.117188 47.726562 11.148438 47.734375 C 11.1875 47.75 11.21875 47.761719 11.257812 47.773438 C 11.34375 47.796875 11.425781 47.824219 11.511719 47.84375 C 11.546875 47.851562 11.582031 47.863281 11.617188 47.871094 C 11.625 47.875 11.636719 47.875 11.648438 47.878906 C 11.679688 47.886719 11.71875 47.890625 11.75 47.898438 C 11.777344 47.90625 11.804688 47.914062 11.832031 47.914062 C 11.851562 47.921875 11.875 47.921875 11.898438 47.929688 C 11.953125 47.9375 12.007812 47.945312 12.0625 47.953125 C 12.09375 47.957031 12.121094 47.960938 12.148438 47.964844 C 12.21875 47.976562 12.289062 47.980469 12.359375 47.984375 C 12.398438 47.992188 12.441406 47.992188 12.484375 47.992188 C 12.488281 47.992188 12.492188 47.992188 12.5 47.992188 C 12.578125 48 12.65625 48 12.734375 48 L 40.164062 48 L 40.164062 0 Z M 12.734375 45.0625 C 11.65625 45.0625 10.773438 44.179688 10.773438 43.101562 C 10.773438 42.914062 10.804688 42.734375 10.851562 42.554688 L 10.859375 42.535156 C 11.109375 41.714844 11.875 41.140625 12.734375 41.140625 L 37.226562 41.140625 L 37.226562 45.0625 Z M 12.734375 45.0625" stroke-linecap="round" />
</g>
		<g transform="matrix(0.25 0 0 0.25 -2.45 -0.86)"  >
<path style="stroke: none; stroke-width: 1; stroke-dasharray: none; stroke-linecap: butt; stroke-dashoffset: 0; stroke-linejoin: miter; stroke-miterlimit: 4; fill: rgb(224,206,142); fill-rule: nonzero; opacity: 1;" vector-effect="non-scaling-stroke"  transform=" translate(-14.2, -20.57)" d="M 12.734375 0 L 15.671875 0 L 15.671875 41.140625 L 12.734375 41.140625 Z M 12.734375 0" stroke-linecap="round" />
</g>
		<g transform="matrix(0.25 0 0 0.25 1.96 0)"  >
<path style="stroke: none; stroke-width: 1; stroke-dasharray: none; stroke-linecap: butt; stroke-dashoffset: 0; stroke-linejoin: miter; stroke-miterlimit: 4; fill: rgb(0,132,255); fill-rule: nonzero; opacity: 1;" vector-effect="non-scaling-stroke"  transform=" translate(-31.84, -24)" d="M 40.164062 0 L 40.164062 48 L 23.507812 48 L 23.507812 45.0625 L 37.226562 45.0625 L 37.226562 41.140625 L 23.507812 41.140625 L 23.507812 0 Z M 40.164062 0" stroke-linecap="round" />
</g>
		<g transform="matrix(0.25 0 0 0.25 0.96 -3.53)"  >
<path style="stroke: none; stroke-width: 1; stroke-dasharray: none; stroke-linecap: butt; stroke-dashoffset: 0; stroke-linejoin: miter; stroke-miterlimit: 4; fill: rgb(224,206,142); fill-rule: nonzero; opacity: 1;" vector-effect="non-scaling-stroke"  transform=" translate(-27.82, -9.87)" d="M 19.984375 5.875 L 35.65625 5.875 L 35.65625 13.859375 L 19.984375 13.859375 Z M 19.984375 5.875" stroke-linecap="round" />
</g>
		<g transform="matrix(0.25 0 0 0.25 1.4 -3.53)"  >
<path style="stroke: none; stroke-width: 1; stroke-dasharray: none; stroke-linecap: butt; stroke-dashoffset: 0; stroke-linejoin: miter; stroke-miterlimit: 4; fill: rgb(255,181,76); fill-rule: nonzero; opacity: 1;" vector-effect="non-scaling-stroke"  transform=" translate(-29.58, -9.87)" d="M 23.507812 5.875 L 35.65625 5.875 L 35.65625 13.859375 L 23.507812 13.859375 Z M 23.507812 5.875" stroke-linecap="round" />
</g>
</g>
</g>
</svg>